<?xml version="1.0" standalone="no"?><!DOCTYPE svg PUBLIC "-//W3C//DTD SVG 1.1//EN" "http://www.w3.org/Graphics/SVG/1.1/DTD/svg11.dtd"><svg t="1615796027655" class="icon" viewBox="0 0 1024 1024" version="1.1" xmlns="http://www.w3.org/2000/svg" p-id="5527" xmlns:xlink="http://www.w3.org/1999/xlink" width="200" height="200"><defs><style type="text/css"></style></defs><path d="M641.575385 614.951385l17.289846 7.08923a391.876923 391.876923 0 0 1 242.806154 351.704616l0.118153 10.870154h-72.704a319.172923 319.172923 0 0 0-178.963692-286.79877l-3.150769-1.45723-7.089231 3.662769a293.494154 293.494154 0 0 1-117.484308 29.853538l-12.406153 0.236308a293.454769 293.454769 0 0 1-132.411077-31.350154l-4.568616-2.441846-3.150769 1.496615a319.172923 319.172923 0 0 0-178.806154 276.243693L190.857846 984.615385H118.153846a391.876923 391.876923 0 0 1 233.078154-358.321231l9.846154-4.214154 17.132308-7.049846 15.753846 9.688615a220.553846 220.553846 0 0 0 116.027077 32.689231c37.021538 0 72.664615-9.058462 104.054153-25.757538l9.29477-5.277539 18.235077-11.421538zM509.991385 39.384615a294.872615 294.872615 0 1 1 0 589.745231 294.872615 294.872615 0 0 1 0-589.745231z m0 72.704a222.168615 222.168615 0 1 0 0 444.337231 222.168615 222.168615 0 0 0 0-444.337231z" p-id="5528" fill="#d81e06"></path></svg>